<svg width="24" height="24" viewBox="0 0 24 24" fill="none" xmlns="http://www.w3.org/2000/svg">
<g opacity="0.5">
<path d="M16.2856 21.5681C17.0473 21.4918 17.6383 20.8724 17.6854 20.1084C17.8477 17.4815 17.934 14.9211 17.934 11.9996C17.934 9.07801 17.8477 6.51764 17.6854 3.89076C17.6383 3.12671 17.0473 2.50738 16.2856 2.43114C11.9089 1.99301 8.07385 1.99301 3.69711 2.43114C2.9354 2.50738 2.34443 3.12671 2.29725 3.89076C2.13507 6.51764 2.04883 9.07801 2.04883 11.9996C2.04883 14.9211 2.13507 17.4815 2.29725 20.1084C2.34443 20.8724 2.9354 21.4918 3.69711 21.5681C8.07383 22.0062 11.9089 22.0062 16.2856 21.5681Z" stroke="#1A1A1A" stroke-width="1.71" stroke-linecap="round" stroke-linejoin="round"/>
<path d="M17.9336 4.05439H20.2686C20.8119 4.05439 21.336 4.32373 21.56 4.81868C22.1316 6.08087 22.0467 7.28448 21.4908 9.14044C21.2952 9.79316 20.6826 10.2255 20.0013 10.2255H17.9336V4.05439Z" stroke="#1A1A1A" stroke-width="1.71" stroke-linecap="round" stroke-linejoin="round"/>
<path d="M17.9336 10.2255H20.2686C20.8119 10.2255 21.336 10.4948 21.56 10.9898C22.1316 12.252 22.0467 13.4556 21.4908 15.3116C21.2952 15.9643 20.6826 16.3966 20.0013 16.3966H17.9336V10.2255Z" stroke="#1A1A1A" stroke-width="1.71" stroke-linecap="round" stroke-linejoin="round"/>
<path d="M12.2787 6.33337H7.7029C6.50879 6.33337 6.50879 7.52748 6.50879 7.52748V9.13555C6.50879 10.3297 7.7029 10.3297 7.7029 10.3297H12.2787C13.4728 10.3297 13.4728 9.13555 13.4728 9.13555V7.52748C13.4728 6.33337 12.2787 6.33337 12.2787 6.33337Z" stroke="#1A1A1A" stroke-width="1.71" stroke-linecap="round" stroke-linejoin="round"/>
</g>
</svg>
